<?xml version='1.0' encoding='utf-8'?>
<svg xmlns="http://www.w3.org/2000/svg" id="Capa_1" data-name="Capa 1" viewBox="0 0 6666 8888"><defs><style>.cls-1{fill:#fff;}.cls-2{fill:#090;}.cls-3{fill:#ffb200;}</style></defs><title>luigi</title><rect class="cls-1" x="1666.5" width="555.5" height="555.5"/><rect class="cls-1" x="2222" width="555.5" height="555.5"/><rect class="cls-1" x="2777.5" width="555.5" height="555.5"/><rect class="cls-1" x="3333" width="555.5" height="555.5"/><rect class="cls-1" x="3888.5" width="555.5" height="555.5"/><rect class="cls-1" x="1666.5" y="555.5" width="555.5" height="555.5"/><rect class="cls-1" x="1111" y="555.5" width="555.5" height="555.5"/><rect class="cls-1" x="2222" y="555.5" width="555.5" height="555.5"/><rect class="cls-2" x="1666.5" y="1111" width="555.5" height="555.5"/><rect class="cls-2" x="1111" y="1111" width="555.5" height="555.5"/><rect class="cls-2" x="2222" y="1111" width="555.5" height="555.5"/><rect class="cls-2" x="1666.5" y="1666.5" width="555.5" height="555.5"/><rect class="cls-2" x="1666.5" y="2222" width="555.5" height="555.5"/><rect class="cls-2" x="555.5" y="1666.5" width="555.5" height="555.5"/><rect class="cls-2" x="555.5" y="2222" width="555.5" height="555.5"/><rect class="cls-3" x="1111" y="1666.5" width="555.5" height="555.5"/><rect class="cls-3" x="1111" y="2222" width="555.5" height="555.5"/><rect class="cls-2" x="555.5" y="2777.5" width="555.5" height="555.5"/><rect class="cls-2" x="1111" y="2777.5" width="555.5" height="555.5"/><rect class="cls-2" x="3888.5" y="2777.5" width="555.5" height="555.5"/><rect class="cls-2" x="4444" y="2777.5" width="555.5" height="555.5"/><rect class="cls-2" x="4999.5" y="2777.5" width="555.5" height="555.5"/><rect class="cls-3" x="3888.5" y="3333" width="555.5" height="555.5"/><rect class="cls-3" x="4444" y="3333" width="555.5" height="555.5"/><rect class="cls-3" x="4999.5" y="3333" width="555.5" height="555.5"/><rect class="cls-2" x="5555" y="2777.5" width="555.5" height="555.5"/><rect class="cls-2" x="2222" y="2222" width="555.5" height="555.5"/><rect class="cls-2" x="4444" y="2222" width="555.5" height="555.5"/><rect class="cls-1" x="4999.5" y="555.5" width="555.5" height="555.5"/><rect class="cls-1" x="4444" y="555.5" width="555.5" height="555.5"/><rect class="cls-1" x="5555" y="555.5" width="555.5" height="555.5"/><rect class="cls-1" x="2777.5" y="555.5" width="555.5" height="555.5"/><rect class="cls-1" x="3333" y="555.5" width="555.5" height="555.5"/><rect class="cls-3" x="1666.5" y="2777.5" width="555.5" height="555.5"/><rect class="cls-3" x="2222" y="2777.5" width="555.5" height="555.5"/><rect class="cls-3" x="2222" y="1666.5" width="555.5" height="555.5"/><rect class="cls-3" x="2777.5" y="1111" width="555.5" height="555.5"/><rect class="cls-3" x="2777.5" y="2222" width="555.5" height="555.5"/><rect class="cls-3" x="2777.5" y="1666.5" width="555.5" height="555.5"/><rect class="cls-3" x="3333" y="1111" width="555.5" height="555.5"/><rect class="cls-3" x="3333" y="2222" width="555.5" height="555.5"/><rect class="cls-3" x="3888.5" y="2222" width="555.5" height="555.5"/><rect class="cls-3" x="4999.5" y="2222" width="555.5" height="555.5"/><rect class="cls-3" x="5555" y="2222" width="555.5" height="555.5"/><rect class="cls-3" x="4999.5" y="1666.5" width="555.5" height="555.5"/><rect class="cls-3" x="5555" y="1666.5" width="555.5" height="555.5"/><rect class="cls-3" x="6110.5" y="2222" width="555.5" height="555.5"/><rect class="cls-3" x="3333" y="1666.5" width="555.5" height="555.5"/><rect class="cls-3" x="4444" y="1111" width="555.5" height="555.5"/><rect class="cls-3" x="4444" y="1666.5" width="555.5" height="555.5"/><rect class="cls-2" x="3888.5" y="1111" width="555.5" height="555.5"/><rect class="cls-2" x="3888.5" y="1666.5" width="555.5" height="555.5"/><rect class="cls-3" x="2777.5" y="2777.5" width="555.5" height="555.5"/><rect class="cls-3" x="3333" y="2777.5" width="555.5" height="555.5"/><rect class="cls-3" x="1666.5" y="3333" width="555.5" height="555.5"/><rect class="cls-3" x="2222" y="3333" width="555.5" height="555.5"/><rect class="cls-1" x="2222" y="3888.5" width="555.5" height="555.5"/><rect class="cls-1" x="2222" y="4444" width="555.5" height="555.5"/><rect class="cls-1" x="3888.5" y="4444" width="555.5" height="555.5"/><rect class="cls-2" x="1666.5" y="3888.5" width="555.5" height="555.5"/><rect class="cls-2" x="1111" y="3888.5" width="555.5" height="555.5"/><rect class="cls-2" x="3333" y="3888.5" width="555.5" height="555.5"/><rect class="cls-2" x="3888.5" y="3888.5" width="555.5" height="555.5"/><rect class="cls-2" x="2777.5" y="3888.5" width="555.5" height="555.5"/><rect class="cls-2" x="3333" y="4444" width="555.5" height="555.5"/><rect class="cls-2" x="2777.5" y="4444" width="555.5" height="555.5"/><rect class="cls-1" x="2222" y="4999.5" width="555.5" height="555.5"/><rect class="cls-2" x="1666.5" y="4444" width="555.5" height="555.5"/><rect class="cls-2" x="1666.5" y="4999.5" width="555.5" height="555.5"/><rect class="cls-1" x="3888.5" y="4999.5" width="555.5" height="555.5"/><rect class="cls-1" x="3333" y="4999.5" width="555.5" height="555.5"/><rect class="cls-1" x="2777.5" y="4999.5" width="555.5" height="555.5"/><rect class="cls-2" x="4444" y="4444" width="555.5" height="555.5"/><rect class="cls-2" x="5555" y="4444" width="555.5" height="555.5"/><rect class="cls-2" x="4999.5" y="4444" width="555.5" height="555.5"/><rect class="cls-2" x="4444" y="4999.5" width="555.5" height="555.5"/><rect class="cls-2" x="6110.5" y="4999.5" width="555.5" height="555.5"/><rect class="cls-2" x="5555" y="4999.5" width="555.5" height="555.5"/><rect class="cls-2" x="4999.5" y="4999.5" width="555.5" height="555.5"/><rect class="cls-2" x="4999.5" y="5555" width="555.5" height="555.5"/><rect class="cls-3" x="2222" y="5555" width="555.5" height="555.5"/><rect class="cls-3" x="3888.5" y="5555" width="555.5" height="555.5"/><rect class="cls-1" x="3333" y="5555" width="555.5" height="555.5"/><rect class="cls-1" x="4444" y="5555" width="555.5" height="555.5"/><rect class="cls-3" x="6110.5" y="5555" width="555.5" height="555.5"/><rect class="cls-3" x="5555" y="5555" width="555.5" height="555.5"/><rect class="cls-3" x="4999.5" y="6110.5" width="555.5" height="555.5"/><rect class="cls-3" x="6110.5" y="6110.5" width="555.5" height="555.5"/><rect class="cls-3" x="5555" y="6110.5" width="555.5" height="555.5"/><rect class="cls-3" x="6110.5" y="6666" width="555.5" height="555.5"/><rect class="cls-3" x="5555" y="6666" width="555.5" height="555.5"/><rect class="cls-3" x="1300.25" y="5746.25" width="555.5" height="555.5" transform="translate(1855.75 11856.75) rotate(-180)"/><rect class="cls-3" x="1855.75" y="5746.25" width="555.5" height="555.5" transform="translate(2966.75 11856.75) rotate(-180)"/><rect class="cls-3" x="2411.25" y="6301.75" width="555.5" height="555.5" transform="translate(4077.75 12967.75) rotate(-180)"/><rect class="cls-3" x="1300.25" y="6301.75" width="555.5" height="555.5" transform="translate(1855.75 12967.75) rotate(-180)"/><rect class="cls-3" x="1855.75" y="6301.75" width="555.5" height="555.5" transform="translate(2966.75 12967.75) rotate(-180)"/><rect class="cls-3" x="1300.25" y="6857.25" width="555.5" height="555.5" transform="translate(1855.75 14078.75) rotate(-180)"/><rect class="cls-3" x="1855.75" y="6857.25" width="555.5" height="555.5" transform="translate(2966.75 14078.75) rotate(-180)"/><rect class="cls-1" x="2777.5" y="5555" width="555.5" height="555.5"/><rect class="cls-1" x="1666.5" y="5555" width="555.5" height="555.5"/><rect class="cls-1" x="2222" y="6110.5" width="555.5" height="555.5"/><rect class="cls-1" x="3888.5" y="6110.5" width="555.5" height="555.5"/><rect class="cls-1" x="3333" y="6110.5" width="555.5" height="555.5"/><rect class="cls-1" x="4444" y="6110.5" width="555.5" height="555.5"/><rect class="cls-1" x="2777.5" y="6110.5" width="555.5" height="555.5"/><rect class="cls-1" x="1666.5" y="6110.5" width="555.5" height="555.5"/><rect class="cls-1" x="4999.5" y="6666" width="555.5" height="555.5"/><rect class="cls-1" x="2411.25" y="6857.25" width="555.5" height="555.5" transform="translate(4077.75 14078.75) rotate(-180)"/><rect class="cls-1" x="2222" y="6666" width="555.5" height="555.5"/><rect class="cls-1" x="3888.5" y="6666" width="555.5" height="555.5"/><rect class="cls-1" x="3333" y="6666" width="555.5" height="555.5"/><rect class="cls-1" x="4444" y="6666" width="555.5" height="555.5"/><rect class="cls-1" x="2777.5" y="6666" width="555.5" height="555.5"/><rect class="cls-1" x="1666.5" y="6666" width="555.5" height="555.5"/><rect class="cls-1" x="2411.25" y="7412.75" width="555.5" height="555.5" transform="translate(4077.75 15189.75) rotate(-180)"/><rect class="cls-1" x="2222" y="7221.5" width="555.5" height="555.5"/><rect class="cls-1" x="1666.5" y="7221.5" width="555.5" height="555.5"/><rect class="cls-2" x="2411.25" y="7968.25" width="555.5" height="555.5" transform="translate(4077.75 16300.75) rotate(-180)"/><rect class="cls-2" x="1855.75" y="7968.25" width="555.5" height="555.5" transform="translate(2966.75 16300.75) rotate(-180)"/><rect class="cls-2" x="1666.5" y="7777" width="555.5" height="555.5"/><rect class="cls-2" x="2411.25" y="8523.75" width="555.5" height="555.5" transform="translate(4077.75 17411.75) rotate(-180)"/><rect class="cls-2" x="1855.75" y="8523.75" width="555.5" height="555.5" transform="translate(2966.75 17411.75) rotate(-180)"/><rect class="cls-2" x="1300.25" y="8523.75" width="555.5" height="555.5" transform="translate(1855.75 17411.75) rotate(-180)"/><rect class="cls-2" x="1666.5" y="8332.5" width="555.5" height="555.5"/><rect class="cls-1" x="5188.75" y="7412.75" width="555.5" height="555.5" transform="translate(9632.75 15189.75) rotate(-180)"/><rect class="cls-1" x="4999.5" y="7221.5" width="555.5" height="555.5"/><rect class="cls-1" x="4444" y="7221.5" width="555.5" height="555.5"/><rect class="cls-2" x="5744.25" y="7968.25" width="555.5" height="555.5" transform="translate(10743.75 16300.75) rotate(-180)"/><rect class="cls-2" x="5555" y="7777" width="555.5" height="555.5"/><rect class="cls-2" x="4999.5" y="7777" width="555.5" height="555.5"/><rect class="cls-2" x="4999.5" y="8332.5" width="555.5" height="555.5"/><rect class="cls-2" x="4444" y="8332.5" width="555.5" height="555.5"/><rect class="cls-2" x="6110.5" y="8332.5" width="555.5" height="555.5"/><rect class="cls-2" x="5555" y="8332.5" width="555.5" height="555.5"/><rect class="cls-2" x="1111" y="4444" width="555.5" height="555.5"/><rect class="cls-2" x="1111" y="4999.5" width="555.5" height="555.5"/><rect class="cls-2" x="555.5" y="4444" width="555.5" height="555.5"/><rect class="cls-2" x="555.5" y="4999.5" width="555.5" height="555.5"/><rect class="cls-2" y="4999.5" width="555.5" height="555.5"/><rect class="cls-2" x="1111" y="5555" width="555.5" height="555.5"/><rect class="cls-3" x="2777.5" y="3333" width="555.5" height="555.5"/><rect class="cls-3" x="3333" y="3333" width="555.5" height="555.5"/><rect class="cls-1" x="3888.5" y="555.5" width="555.5" height="555.5"/></svg>